name rise34.3697peak60.0498fall86.3158.mot
datacolumns 19
datarows 29
range 16.87326800000000 16.91994000000000
endheader
time	ground_force1_vx	ground_force1_vy	ground_force1_vz	ground_force1_px	ground_force1_py	ground_force1_pz	ground_force2_vx	ground_force2_vy	ground_force2_vz	ground_force2_px	ground_force2_py	ground_force2_pz	ground_torque1_x	ground_torque1_y	ground_torque1_z	ground_torque2_x	ground_torque2_y	ground_torque2_z	
16.87326800000000	-7.65038600000000	45.60676400000000	-11.12349200000000	0.39624600000000	0.00000000000000	0.09258800000000	-34.87421100000000	794.95468200000005	-53.63179400000000	0.20329300000000	0.00000000000000	-0.08392200000000	0.00000000000000	-9.00395000000000	0.00000000000000	0.00000000000000	-24.70078900000000	0.00000000000000	
16.87493200000000	-8.26951800000000	52.13342800000000	-12.25801200000000	0.39659100000000	0.00000000000000	0.09318500000000	-35.36885500000000	792.59551599999998	-53.28532600000000	0.20231100000000	0.00000000000000	-0.08386300000000	0.00000000000000	-9.95101400000000	0.00000000000000	0.00000000000000	-24.56105600000000	0.00000000000000	
16.87662500000000	-8.75414900000000	58.59583100000000	-13.25814900000000	0.39703500000000	0.00000000000000	0.09374200000000	-35.87987700000000	790.13875900000005	-52.92027800000000	0.20132100000000	0.00000000000000	-0.08380100000000	0.00000000000000	-10.79945100000000	0.00000000000000	0.00000000000000	-24.41955300000000	0.00000000000000	
16.87826900000000	-9.09191100000000	64.92901200000000	-14.10669500000000	0.39756900000000	0.00000000000000	0.09426400000000	-36.40753000000000	787.58317599999998	-52.53660100000000	0.20032200000000	0.00000000000000	-0.08373700000000	0.00000000000000	-11.53593200000000	0.00000000000000	0.00000000000000	-24.27645600000000	0.00000000000000	
16.87993900000000	-9.27750600000000	71.09301900000000	-14.79529200000000	0.39818500000000	0.00000000000000	0.09475500000000	-36.95199400000000	784.92741400000000	-52.13425700000000	0.19931600000000	0.00000000000000	-0.08367000000000	0.00000000000000	-12.15398700000000	0.00000000000000	0.00000000000000	-24.13193100000000	0.00000000000000	
16.88161100000000	-9.31212100000000	77.07235400000000	-15.32380800000000	0.39887800000000	0.00000000000000	0.09521900000000	-37.51337200000000	782.17000299999995	-51.71321900000000	0.19830300000000	0.00000000000000	-0.08359900000000	0.00000000000000	-12.65353800000000	0.00000000000000	0.00000000000000	-23.98613400000000	0.00000000000000	
16.88326400000000	-9.20241000000000	82.87350700000000	-15.69915500000000	0.39964000000000	0.00000000000000	0.09565700000000	-38.09168800000000	779.30935699999998	-51.27347400000000	0.19728500000000	0.00000000000000	-0.08352600000000	0.00000000000000	-13.03998500000000	0.00000000000000	0.00000000000000	-23.83921000000000	0.00000000000000	
16.88493400000000	-8.95921100000000	88.52110300000000	-15.93372000000000	0.40046900000000	0.00000000000000	0.09607300000000	-38.68688400000000	776.34377600000005	-50.81502600000000	0.19626200000000	0.00000000000000	-0.08345000000000	0.00000000000000	-13.32300500000000	0.00000000000000	0.00000000000000	-23.69129100000000	0.00000000000000	
16.88662400000000	-8.59614100000000	94.05322900000000	-16.04363700000000	0.40135700000000	0.00000000000000	0.09646900000000	-39.29881400000000	773.27145299999995	-50.33789300000000	0.19523600000000	0.00000000000000	-0.08337000000000	0.00000000000000	-13.51520300000000	0.00000000000000	0.00000000000000	-23.54249900000000	0.00000000000000	
16.88826800000000	-8.12821800000000	99.51645900000000	-16.04703700000000	0.40230100000000	0.00000000000000	0.09684500000000	-39.92724400000000	770.09047499999997	-49.84211100000000	0.19420800000000	0.00000000000000	-0.08328700000000	0.00000000000000	-13.63075500000000	0.00000000000000	0.00000000000000	-23.39294200000000	0.00000000000000	
16.88993800000000	-7.57060500000000	104.96104900000000	-15.96245400000000	0.40329700000000	0.00000000000000	0.09720500000000	-40.57184600000000	766.79883400000006	-49.32773500000000	0.19317900000000	0.00000000000000	-0.08320100000000	0.00000000000000	-13.68416100000000	0.00000000000000	0.00000000000000	-23.24271200000000	0.00000000000000	
16.89162600000000	-6.93756800000000	110.43664900000000	-15.80745700000000	0.40434100000000	0.00000000000000	0.09754800000000	-41.23220000000000	763.39442699999995	-48.79484100000000	0.19215000000000	0.00000000000000	-0.08311200000000	0.00000000000000	-13.68916900000000	0.00000000000000	0.00000000000000	-23.09188800000000	0.00000000000000	
16.89326900000000	-6.24167900000000	115.98877400000001	-15.59760700000000	0.40542900000000	0.00000000000000	0.09787700000000	-41.90778900000000	759.87506699999994	-48.24352500000000	0.19112300000000	0.00000000000000	-0.08301800000000	0.00000000000000	-13.65795100000000	0.00000000000000	0.00000000000000	-22.94053600000000	0.00000000000000	
16.89493500000000	-5.49329500000000	121.65618800000000	-15.34573200000000	0.40655900000000	0.00000000000000	0.09819200000000	-42.59799500000000	756.23849199999995	-47.67390900000000	0.19009900000000	0.00000000000000	-0.08292200000000	0.00000000000000	-13.60052600000000	0.00000000000000	0.00000000000000	-22.78870300000000	0.00000000000000	
16.89662500000000	-4.70030100000000	127.46922400000000	-15.06155300000000	0.40772500000000	0.00000000000000	0.09849300000000	-43.30210300000000	752.48237099999994	-47.08613800000000	0.18907900000000	0.00000000000000	-0.08282100000000	0.00000000000000	-13.52444400000000	0.00000000000000	0.00000000000000	-22.63642200000000	0.00000000000000	
16.89827100000000	-3.86808300000000	133.44900600000000	-14.75159400000000	0.40892600000000	0.00000000000000	0.09878300000000	-44.01929500000000	748.60431500000004	-46.48038200000000	0.18806400000000	0.00000000000000	-0.08271700000000	0.00000000000000	-13.43471500000000	0.00000000000000	0.00000000000000	-22.48370900000000	0.00000000000000	
16.89993900000000	-2.99969800000000	139.60747599999999	-14.41935600000000	0.41015800000000	0.00000000000000	0.09906000000000	-44.74865200000000	744.60188700000003	-45.85684100000000	0.18705700000000	0.00000000000000	-0.08260800000000	0.00000000000000	-13.33392300000000	0.00000000000000	0.00000000000000	-22.33056400000000	0.00000000000000	
16.90161100000000	-2.09619800000000	145.94805900000000	-14.06568300000000	0.41141900000000	0.00000000000000	0.09932700000000	-45.48915200000000	740.47261200000003	-45.21574300000000	0.18605700000000	0.00000000000000	-0.08249600000000	0.00000000000000	-13.22251100000000	0.00000000000000	0.00000000000000	-22.17696900000000	0.00000000000000	
16.90326500000000	-1.15703600000000	152.46681500000000	-13.68925800000000	0.41270500000000	0.00000000000000	0.09958300000000	-46.23967200000000	736.21399099999996	-44.55734500000000	0.18506800000000	0.00000000000000	-0.08238000000000	0.00000000000000	-13.09916300000000	0.00000000000000	0.00000000000000	-22.02289000000000	0.00000000000000	
16.90493200000000	-0.18053300000000	159.15389300000001	-13.28717300000000	0.41401300000000	0.00000000000000	0.09982900000000	-46.99898600000000	731.82351200000005	-43.88193700000000	0.18408800000000	0.00000000000000	-0.08225900000000	0.00000000000000	-12.96124700000000	0.00000000000000	0.00000000000000	-21.86827700000000	0.00000000000000	
16.90661500000000	0.83566000000000	165.99512400000000	-12.85550800000000	0.41534200000000	0.00000000000000	0.10006500000000	-47.76576700000000	727.29866300000003	-43.18984000000000	0.18312200000000	0.00000000000000	-0.08213500000000	0.00000000000000	-12.80528100000000	0.00000000000000	0.00000000000000	-21.71306100000000	0.00000000000000	
16.90826600000000	1.89412500000000	172.97361000000001	-12.38988900000000	0.41668700000000	0.00000000000000	0.10029200000000	-48.53859000000000	722.63694799999996	-42.48140800000000	0.18216800000000	0.00000000000000	-0.08200600000000	0.00000000000000	-12.62736700000000	0.00000000000000	0.00000000000000	-21.55715800000000	0.00000000000000	
16.90993700000000	2.99730400000000	180.07120000000000	-11.88596900000000	0.41804700000000	0.00000000000000	0.10050900000000	-49.31593100000000	717.83589700000005	-41.75703200000000	0.18123000000000	0.00000000000000	-0.08187200000000	0.00000000000000	-12.42358600000000	0.00000000000000	0.00000000000000	-21.40046500000000	0.00000000000000	
16.91162500000000	4.14719400000000	187.26974700000000	-11.33983000000000	0.41941800000000	0.00000000000000	0.10071800000000	-50.09617000000000	712.89309200000002	-41.01713500000000	0.18030700000000	0.00000000000000	-0.08173400000000	0.00000000000000	-12.19031900000000	0.00000000000000	0.00000000000000	-21.24286700000000	0.00000000000000	
16.91326900000000	5.34512900000000	194.55212100000000	-10.74827800000000	0.42079900000000	0.00000000000000	0.10091800000000	-50.87759800000000	707.80617099999995	-40.26217500000000	0.17940200000000	0.00000000000000	-0.08159200000000	0.00000000000000	-11.92449600000000	0.00000000000000	0.00000000000000	-21.08422900000000	0.00000000000000	
16.91493600000000	6.59164500000000	201.90293500000001	-10.10903300000000	0.42218600000000	0.00000000000000	0.10111000000000	-51.65841500000000	702.57285600000000	-39.49264800000000	0.17851600000000	0.00000000000000	-0.08144500000000	0.00000000000000	-11.62375400000000	0.00000000000000	0.00000000000000	-20.92440200000000	0.00000000000000	
16.91661700000000	7.88641900000000	209.30898700000000	-9.42083000000000	0.42357700000000	0.00000000000000	0.10129400000000	-52.43673600000000	697.19096500000001	-38.70908400000000	0.17764900000000	0.00000000000000	-0.08129300000000	0.00000000000000	-11.28652700000000	0.00000000000000	0.00000000000000	-20.76322300000000	0.00000000000000	
16.91827000000000	9.22827800000000	216.75945600000000	-8.68342100000000	0.42497000000000	0.00000000000000	0.10146900000000	-53.21059400000000	691.65843199999995	-37.91204800000000	0.17680300000000	0.00000000000000	-0.08113700000000	0.00000000000000	-10.91205900000000	0.00000000000000	0.00000000000000	-20.60051400000000	0.00000000000000	
16.91994000000000	10.61526200000000	224.24587600000001	-7.89752200000000	0.42636100000000	0.00000000000000	0.10163700000000	-53.97794900000000	685.97332700000004	-37.10214200000000	0.17598000000000	0.00000000000000	-0.08097600000000	0.00000000000000	-10.50036900000000	0.00000000000000	0.00000000000000	-20.43608400000000	0.00000000000000	
